<?xml version="1.0" standalone="no"?>
<!DOCTYPE svg PUBLIC "-//W3C//DTD SVG 20010904//EN"
 "http://www.w3.org/TR/2001/REC-SVG-20010904/DTD/svg10.dtd">
<svg version="1.0" xmlns="http://www.w3.org/2000/svg"
 width="1024.000000pt" height="1024.000000pt" viewBox="0 0 1024.000000 1024.000000"
 preserveAspectRatio="xMidYMid meet">

<g transform="translate(0.000000,1024.000000) scale(0.100000,-0.100000)"
fill="#000000" stroke="none">
<path d="M0 5120 l0 -5120 5120 0 5120 0 0 5120 0 5120 -5120 0 -5120 0 0
-5120z m5475 2785 c756 -89 1410 -448 1918 -1055 140 -167 317 -441 397 -615
78 -169 81 -177 63 -171 -104 40 -330 86 -424 86 -57 0 -72 -4 -95 -23 -25
-22 -27 -29 -28 -114 -1 -88 0 -93 32 -138 18 -26 31 -49 29 -51 -2 -2 -28 4
-57 14 -49 15 -59 24 -106 92 -265 382 -491 630 -619 678 -75 28 -449 81 -725
102 -608 47 -1399 23 -1865 -56 -240 -41 -294 -72 -475 -269 -70 -76 -263
-314 -326 -401 -16 -22 -42 -59 -59 -82 -20 -27 -42 -45 -65 -52 -52 -15 -54
-13 -29 28 21 32 24 50 24 134 0 121 -7 130 -101 136 -76 5 -177 -9 -319 -45
-129 -32 -194 -60 -205 -88 -16 -42 22 -155 58 -174 9 -5 62 -21 117 -35 137
-37 135 -36 135 -45 0 -5 -43 -37 -96 -72 -53 -35 -106 -71 -118 -79 -74 -49
-202 -160 -242 -209 -26 -31 -69 -101 -96 -156 l-49 -100 6 85 c8 104 47 322
81 450 153 578 481 1112 923 1502 221 196 397 316 642 439 351 176 714 271
1149 303 101 7 394 -3 525 -19z m-5 -1215 c416 -16 788 -54 1078 -111 47 -9
64 -20 129 -82 98 -93 229 -249 400 -477 l139 -185 66 -21 c89 -29 169 -73
258 -144 118 -93 208 -174 209 -187 1 -9 -13 -13 -40 -13 -39 0 -47 5 -133 94
-99 102 -167 146 -260 171 l-61 16 -282 -280 c-155 -155 -285 -281 -289 -281
-4 0 2 10 13 23 38 42 345 479 340 483 -3 3 -67 -18 -144 -46 -76 -29 -160
-54 -188 -57 -44 -4 -53 -1 -77 22 -37 34 -35 53 7 108 19 25 35 50 35 55 0
15 -195 25 -342 17 -388 -19 -713 -74 -1044 -179 -242 -76 -537 -204 -734
-319 l-35 -20 25 27 c14 15 88 70 165 121 292 196 620 328 986 399 74 14 152
30 174 34 63 13 -158 3 -340 -14 -319 -31 -651 -109 -939 -221 -48 -19 -90
-32 -92 -31 -4 4 17 46 47 95 18 29 19 34 5 39 -27 10 -487 -26 -648 -52 -32
-5 -48 -18 -103 -85 -41 -49 -73 -79 -85 -79 -11 0 -81 24 -157 54 -282 109
-363 139 -368 134 -5 -5 202 -312 303 -451 19 -26 33 -49 31 -50 -2 -2 -125
122 -274 274 -302 311 -268 288 -382 249 -71 -25 -126 -65 -225 -165 -75 -75
-89 -85 -121 -85 -20 0 -38 4 -41 9 -16 25 271 246 383 295 75 33 180 55 259
56 17 0 59 46 141 155 190 252 435 529 505 570 94 55 691 126 1156 138 58 2
146 4 195 5 50 1 209 -3 355 -8z m-2472 -576 c93 -25 -138 -76 -453 -99 l-80
-5 50 21 c115 49 417 100 483 83z m4545 -9 c149 -22 367 -80 367 -98 0 -5 -11
-6 -24 -3 -13 3 -109 15 -213 26 -250 27 -368 60 -291 82 36 10 56 9 161 -7z
m416 -302 c68 -237 107 -445 116 -623 4 -85 3 -99 -6 -75 -70 186 -107 253
-192 342 -48 51 -219 187 -332 263 l-50 34 30 8 c17 3 64 14 105 23 41 9 112
28 158 41 73 22 86 29 104 60 11 18 23 34 28 34 4 0 21 -48 39 -107z m-1359
-270 c-64 -11 -226 -56 -306 -84 -87 -31 -89 -31 -121 -13 -37 19 -42 39 -15
52 25 13 133 32 237 41 95 9 248 11 205 4z m-1035 -47 c105 -44 5 -175 -222
-290 -73 -36 -75 -33 -7 13 33 22 72 52 88 67 39 37 86 113 86 141 0 42 -59
55 -123 28 -20 -8 -50 -15 -66 -15 -16 0 -92 -11 -168 -25 -400 -73 -708 -196
-679 -271 10 -26 135 -16 175 14 18 13 32 18 36 12 8 -14 -69 -47 -136 -60
-60 -12 -116 -4 -141 18 -23 20 -23 25 8 62 71 84 509 251 799 305 100 18 307
19 350 1z m-290 -110 c71 -30 73 -82 6 -147 -38 -37 -65 -53 -116 -68 -79 -25
-104 -26 -149 -7 -40 17 -66 51 -66 87 0 35 83 111 143 132 54 20 138 21 182
3z m-2713 -52 c114 -37 187 -135 175 -237 -4 -27 -15 -67 -25 -88 l-19 -38 56
-38 c31 -21 61 -40 66 -42 6 -2 24 -15 41 -28 17 -12 36 -23 42 -23 7 0 12 -4
12 -9 0 -6 12 -6 32 0 49 14 59 9 13 -7 l-40 -14 44 4 c30 3 40 2 30 -5 -30
-19 -64 -7 -167 57 -59 37 -115 73 -124 82 -10 8 -25 12 -35 10 -13 -4 -18 1
-19 17 -1 18 3 21 21 17 19 -3 25 3 40 42 37 95 0 198 -91 256 -121 76 -264
31 -308 -98 -23 -67 -20 -101 17 -162 25 -43 44 -61 87 -83 49 -25 63 -28 124
-24 51 3 64 2 50 -6 -28 -16 -124 -12 -169 7 -89 38 -133 105 -145 218 -9 92
-3 113 48 161 57 55 137 65 244 31z m5255 10 c36 -7 91 -62 114 -113 27 -60
36 -157 18 -218 -26 -96 -159 -185 -268 -182 l-36 1 43 9 c56 11 139 51 179
86 64 57 98 172 74 253 -7 21 -9 18 -15 -25 -12 -88 -26 -125 -63 -166 -64
-71 -158 -101 -238 -75 -39 13 -39 13 26 8 79 -5 128 9 175 51 73 63 94 159
54 242 -61 126 -208 154 -318 59 -58 -49 -82 -100 -82 -171 0 -66 28 -127 55
-117 11 5 14 2 9 -10 -3 -9 -13 -16 -22 -16 -8 0 -29 -11 -46 -23 -17 -13 -71
-49 -120 -80 -69 -44 -98 -57 -125 -56 l-36 2 35 7 c26 5 29 8 11 9 -34 2 -89
39 -106 71 -16 30 -19 68 -9 94 7 19 166 71 189 62 25 -9 55 -69 54 -106 l-2
-35 -6 40 c-9 51 -26 82 -49 89 -24 8 -146 -29 -167 -50 -42 -42 9 -133 87
-152 48 -12 58 -8 153 63 33 25 72 50 88 56 32 13 32 14 7 64 -38 75 -21 186
38 248 73 76 179 105 299 81z m-2939 -91 c-9 -24 -9 -38 0 -57 19 -42 58 -60
146 -66 79 -6 80 -6 35 -14 -58 -10 -148 8 -183 35 -31 24 -34 67 -9 110 21
36 26 32 11 -8z m-2614 -251 c37 -70 121 -133 206 -156 34 -9 45 -15 29 -15
-53 -2 -152 41 -201 87 -50 47 -69 89 -67 152 l1 35 9 -38 c5 -21 15 -50 23
-65z m-54 12 c0 -53 56 -124 122 -158 79 -39 452 -115 604 -123 106 -5 113 -4
164 21 52 26 53 26 38 4 -8 -13 -34 -36 -57 -53 -41 -28 -48 -30 -134 -28
-100 1 -323 37 -482 78 -130 32 -199 68 -239 123 -27 38 -31 53 -34 120 -2 56
0 73 7 62 6 -8 11 -29 11 -46z m5797 -13 c-13 -152 -76 -200 -347 -261 -136
-31 -284 -55 -398 -66 -87 -8 -147 11 -187 57 -36 44 -31 49 23 22 44 -23 55
-24 152 -20 92 5 456 68 545 95 101 31 163 92 191 189 8 29 18 53 21 53 3 0 3
-31 0 -69z m-5038 32 c28 -9 49 -18 47 -20 -2 -3 -25 3 -50 11 -63 21 -73 20
-101 -10 -29 -31 -33 -25 -9 11 19 29 43 31 113 8z m4342 -30 c13 -16 12 -17
-3 -4 -17 13 -22 21 -14 21 2 0 10 -8 17 -17z m-4247 -9 c9 -8 16 -24 16 -35
0 -29 -24 -82 -46 -99 -13 -11 -12 -6 6 19 30 43 32 98 5 117 -10 8 -14 14 -8
14 7 0 19 -7 27 -16z m2636 -25 c273 -11 705 -43 820 -60 95 -14 152 -36 245
-94 94 -58 180 -137 205 -186 11 -21 23 -62 26 -92 14 -122 -38 -223 -200
-383 -182 -182 -243 -198 -861 -228 -447 -22 -917 -28 -1285 -16 -378 12 -768
35 -880 51 -164 24 -262 73 -380 190 -187 184 -242 331 -177 473 38 82 183
194 324 251 73 30 141 41 373 59 629 52 1156 62 1790 35z m-2725 -19 c-3 -5
-18 -9 -33 -9 l-27 1 30 8 c17 4 31 8 33 9 2 0 0 -3 -3 -9z m193 -67 c-78 -94
-134 -130 -181 -115 l-32 10 32 1 c42 1 83 17 112 44 41 38 101 118 95 128 -3
5 4 9 16 9 19 0 12 -11 -42 -77z m3855 28 c21 -27 58 -68 82 -90 37 -34 51
-41 87 -41 35 -1 40 -3 25 -11 -27 -16 -75 -1 -116 36 -44 40 -136 155 -124
155 5 0 26 -22 46 -49z m256 33 c2 -2 -10 -4 -27 -4 -17 0 -34 4 -37 10 -5 9
53 3 64 -6z m-4447 -19 c3 -13 1 -22 -3 -19 -9 5 -13 44 -5 44 2 0 6 -11 8
-25z m-162 -626 c165 -42 283 -77 262 -78 -6 -1 -73 13 -147 29 -198 44 -314
57 -355 40 -38 -16 -92 -72 -138 -143 -34 -53 -35 -51 -8 43 22 79 50 118 99
141 52 24 76 21 287 -32z m5143 37 c48 -19 84 -68 107 -143 28 -92 25 -107
-10 -45 -17 29 -50 72 -73 96 -68 71 -124 70 -482 -10 -82 -18 -151 -31 -153
-29 -4 4 5 7 221 66 146 40 305 77 340 78 10 1 32 -5 50 -13z m-4836 -122 c-3
-3 -12 -4 -19 -1 -8 3 -5 6 6 6 11 1 17 -2 13 -5z m188 -116 c38 -34 99 -90
135 -124 194 -181 279 -241 386 -269 44 -11 321 -34 437 -35 4 0 7 -28 5 -62
l-3 -63 -145 5 c-267 9 -342 5 -538 -34 -246 -48 -297 -47 -617 11 -332 60
-476 100 -534 149 -34 29 -79 109 -68 120 2 3 76 -14 163 -36 180 -46 634
-133 769 -148 98 -11 159 -4 228 26 l42 18 -140 28 c-171 34 -716 169 -776
192 -84 33 -129 80 -129 136 0 63 70 128 137 128 44 0 110 -59 119 -106 3 -19
13 -38 20 -42 20 -11 31 -82 14 -92 -9 -6 -1 -12 26 -19 42 -12 692 -121 719
-121 18 0 3 18 -233 283 -130 145 -135 162 -17 55z m3904 1 c-131 -144 -270
-304 -280 -321 -7 -13 -6 -18 4 -18 14 0 529 87 660 111 l67 12 0 39 c0 44 16
82 31 73 5 -4 9 3 9 15 0 55 59 119 117 127 103 14 177 -97 123 -185 -25 -41
-67 -66 -150 -91 -116 -35 -632 -159 -755 -182 l-120 -22 42 -18 c71 -30 146
-39 229 -29 187 24 589 102 792 155 75 19 137 33 139 31 7 -7 -24 -71 -49
-101 -14 -17 -46 -41 -71 -53 -50 -25 -262 -76 -487 -116 -323 -58 -385 -59
-615 -9 l-170 37 -258 -3 -258 -2 2 61 c2 57 3 60 28 60 87 0 364 22 406 31
115 26 185 76 416 291 106 98 208 187 218 188 2 0 -30 -36 -70 -81z m-1061
-271 c8 -8 12 -65 12 -190 0 -165 -1 -178 -19 -188 -13 -7 -315 -10 -909 -10
-758 0 -891 2 -901 14 -19 22 -18 365 0 377 23 14 1802 12 1817 -3z m-1478
-419 c534 -10 1022 -7 1640 12 189 6 378 7 420 3 l75 -8 -60 -7 c-276 -34
-3055 -32 -3055 2 0 14 71 17 265 13 105 -2 426 -9 715 -15z"/>
<path d="M4690 6654 c-262 -17 -567 -48 -783 -81 l-107 -16 -101 -104 c-136
-141 -489 -591 -489 -623 0 -20 303 -11 508 15 496 62 860 79 1571 72 669 -6
955 -22 1386 -78 191 -24 480 -27 471 -4 -9 23 -111 168 -237 335 -123 162
-322 390 -342 390 -7 0 -61 7 -122 15 -495 64 -682 77 -1220 80 -264 1 -505 1
-535 -1z m525 -62 c-11 -9 -207 -47 -298 -58 -45 -5 -94 -25 -225 -92 -268
-136 -498 -282 -722 -457 l-115 -90 -150 -12 c-82 -6 -190 -12 -238 -12 l-89
-1 104 112 c159 171 402 393 510 465 88 58 105 66 180 79 184 30 551 61 808
67 52 1 129 3 170 5 42 2 70 -1 65 -6z m918 -485 c54 -27 89 -53 121 -90 61
-68 59 -83 -1 -19 -97 103 -253 138 -404 92 -62 -19 -83 -31 -128 -76 -35 -35
-62 -54 -78 -54 -22 0 -23 1 -9 28 27 52 112 116 191 145 38 13 73 17 141 14
82 -3 99 -7 167 -40z"/>
<path d="M4740 4934 c-268 -7 -916 -45 -1088 -64 -50 -6 -105 -19 -137 -34
-118 -54 -240 -157 -270 -228 -23 -57 -19 -153 9 -213 57 -122 217 -281 341
-340 79 -37 174 -53 455 -75 708 -56 1671 -49 2265 15 171 19 242 37 320 80
129 72 287 256 316 368 22 89 -5 190 -68 249 -70 65 -187 139 -252 158 -160
47 -1323 99 -1891 84z m418 -104 c152 -25 258 -99 323 -226 32 -63 34 -74 34
-164 0 -88 -3 -101 -33 -162 -131 -266 -500 -321 -715 -106 -72 72 -101 142
-105 257 -4 90 -3 95 32 166 63 128 176 210 322 234 69 12 72 12 142 1z m1706
-313 c-14 -109 -48 -183 -123 -261 -99 -102 -168 -127 -424 -150 -336 -31
-975 -61 -990 -46 -19 18 71 29 308 40 474 20 839 50 933 74 70 19 133 57 177
108 40 46 82 124 73 133 -3 3 -106 1 -229 -4 -123 -6 -341 -13 -484 -16 -143
-3 -327 -8 -408 -11 l-149 -6 4 24 3 23 410 7 c445 7 859 23 875 33 5 3 10 25
10 47 l0 41 -87 -7 c-49 -3 -343 -9 -655 -13 -563 -6 -568 -6 -568 14 0 20 9
20 638 26 350 3 645 9 655 12 9 4 17 14 17 23 0 12 3 13 12 4 9 -9 9 -32 2
-95z m-2874 56 c563 -7 645 -10 645 -23 0 -13 -54 -15 -430 -15 -236 0 -531 3
-654 8 l-224 7 7 -42 c4 -23 8 -44 10 -45 7 -7 485 -23 856 -28 212 -4 395 -8
408 -11 12 -2 22 -12 22 -21 0 -15 -33 -16 -387 -10 -214 3 -497 11 -631 18
-134 6 -245 9 -248 7 -8 -9 55 -112 92 -151 102 -105 226 -125 1009 -162 317
-15 395 -24 395 -46 0 -5 -19 -7 -42 -4 -24 2 -137 7 -253 10 -353 9 -815 45
-920 71 -122 30 -226 118 -287 241 -26 54 -32 79 -36 151 -3 75 -2 85 9 70 13
-16 65 -18 659 -25z"/>
<path d="M4979 4766 c-99 -26 -190 -103 -232 -194 -33 -72 -30 -209 5 -277 31
-61 113 -140 171 -165 65 -29 157 -40 229 -29 286 46 403 375 203 574 -54 54
-128 91 -204 101 l-54 7 6 -34 c3 -19 11 -79 18 -134 7 -55 15 -105 18 -112 4
-7 67 -55 140 -108 74 -52 129 -95 122 -95 -15 0 -271 108 -287 121 -7 6 -36
-2 -80 -22 -103 -46 -264 -108 -264 -100 1 3 61 47 136 96 82 55 136 98 139
110 10 44 35 224 35 249 0 22 -4 26 -27 25 -16 0 -49 -6 -74 -13z"/>
<path d="M2585 3900 c-3 -5 1 -10 10 -10 9 0 13 5 10 10 -3 6 -8 10 -10 10 -2
0 -7 -4 -10 -10z"/>
<path d="M7600 3900 c0 -5 5 -10 11 -10 5 0 7 5 4 10 -3 6 -8 10 -11 10 -2 0
-4 -4 -4 -10z"/>
</g>
</svg>
