<svg xmlns="http://www.w3.org/2000/svg" version="1.1" xmlns:xlink="http://www.w3.org/1999/xlink" xmlns:svgjs="http://svgjs.dev/svgjs" width="1500" height="1500" viewBox="0 0 1500 1500"><rect width="1500" height="1500" fill="#ffffff"></rect><g transform="matrix(0.6666666666666666,0,0,0.6666666666666666,249.52964074814724,599.1122106212636)"><svg viewBox="0 0 263 79" data-background-color="#ffffff" preserveAspectRatio="xMidYMid meet" height="450" width="1500" xmlns="http://www.w3.org/2000/svg" xmlns:xlink="http://www.w3.org/1999/xlink"><g id="tight-bounds" transform="matrix(1,0,0,1,0.12370448323727601,0.23378453640057728)"><svg viewBox="0 0 262.75259103352545 78.53243092719882" height="78.53243092719882" width="262.75259103352545"><g><svg viewBox="0 0 262.75259103352545 78.53243092719882" height="78.53243092719882" width="262.75259103352545"><g><svg viewBox="0 0 262.75259103352545 78.53243092719882" height="78.53243092719882" width="262.75259103352545"><g id="textblocktransform"><svg viewBox="0 0 262.75259103352545 78.53243092719882" height="78.53243092719882" width="262.75259103352545" id="textblock"><g><svg viewBox="0 0 262.75259103352545 58.571600000000004" height="58.571600000000004" width="262.75259103352545"><g><svg><g></g><g></g></svg></g><g><svg><g></g><g><svg></svg></g></svg></g><g id="text-0"><svg viewBox="0 0 262.75259103352545 58.571600000000004" height="58.571600000000004" width="262.75259103352545"><g transform="matrix(1,0,0,1,0,10.560799999999997)"><svg width="68.45" viewBox="1.85 -35.45 68.45 36.150000000000006" height="36.150000000000006" data-palette-color="#8dbdff"><path d="M16 0.6L16 0.6Q13.28 0.6 10.75-0.51 8.22-1.63 6.21-3.89 4.2-6.15 3.03-9.65 1.85-13.15 1.85-17.9L1.85-17.9Q1.85-23.6 3.84-27.51 5.83-31.43 9.16-33.44 12.5-35.45 16.55-35.45L16.55-35.45Q19.3-35.45 21.04-34.93 22.78-34.4 23.81-33.68 24.85-32.95 25.5-32.35L25.5-32.35 22.7-27.1Q21.63-28.28 20.48-28.99 19.33-29.7 16.8-29.7L16.8-29.7Q14.25-29.7 12.46-28.23 10.68-26.75 9.74-24.16 8.8-21.58 8.8-18.25L8.8-18.25Q8.8-11.73 10.99-8.41 13.18-5.1 16.25-5.1L16.25-5.1Q18.63-5.1 20.3-5.78 21.98-6.45 22.8-7.3L22.8-7.3 25.55-2.35Q24.85-1.78 23.69-1.09 22.53-0.4 20.66 0.1 18.8 0.6 16 0.6ZM35.05 0.7L35.05 0.7Q32.75 0.7 31.23-0.33 29.72-1.35 28.98-3.05 28.25-4.75 28.25-6.8L28.25-6.8Q28.25-7.95 28.84-9.33 29.42-10.7 30.92-11.95 32.42-13.2 35.15-14 37.87-14.8 42.15-14.8L42.15-14.8 42.15-15.95Q42.15-17.8 41.26-19.03 40.37-20.25 37.7-20.25L37.7-20.25Q35.75-20.25 33.88-19.59 32.02-18.93 31.15-17.95L31.15-17.95 29.15-22.75Q30.65-23.78 33.16-24.64 35.67-25.5 38.75-25.5L38.75-25.5Q42.45-25.5 44.5-24.38 46.55-23.25 47.37-21.19 48.2-19.13 48.2-16.35L48.2-16.35 48.2 0 42.85 0 42.4-3.55Q39.8 0.7 35.05 0.7ZM37.7-4.1L37.7-4.1Q38.82-4.1 40.11-5.01 41.4-5.93 42.15-7.35L42.15-7.35 42.15-10.9Q41.9-10.95 41.61-10.95 41.32-10.95 40.95-10.95L40.95-10.95Q39.57-10.95 38.06-10.64 36.55-10.33 35.5-9.55 34.45-8.78 34.45-7.4L34.45-7.4Q34.45-5.6 35.25-4.85 36.05-4.1 37.7-4.1ZM60.9 0L54.65 0 54.65-24.9 60.3-24.9 60.6-20.5Q61-21.48 61.83-22.58 62.67-23.68 64.16-24.44 65.65-25.2 68-25.2L68-25.2Q68.72-25.2 69.27-25.1 69.82-25 70.3-24.8L70.3-24.8 68.9-18.25Q68.1-19.05 66.45-19.05L66.45-19.05Q64.52-19.05 63.3-18.26 62.07-17.48 61.48-16.5 60.9-15.53 60.9-15L60.9-15 60.9 0Z" opacity="1" transform="matrix(1,0,0,1,0,0)" fill="#8dbdff" class="undefined-tk-0"></path></svg></g><g><svg xmlns="http://www.w3.org/2000/svg" data-name="Layer 1" viewBox="3.669999464869177 11.465370931765138 92.67000055264425 77.99078254250438" x="82.2784" y="0" height="58.571600000000004" width="69.59579103352544" class="icon-dxe-0" data-fill-palette-color="accent" id="dxe-0"><path d="M76.45 65.78A11.84 11.84 0 0 0 65.9 72.28H55.35A7.48 7.48 0 0 0 44.82 72.28H34.27A11.84 11.84 0 1 0 34.27 82.95H44.82A7.48 7.48 0 0 0 55.35 82.95H65.9A11.83 11.83 0 1 0 76.45 65.78M23.72 87.45A9.84 9.84 0 1 1 33.56 77.61 9.85 9.85 0 0 1 23.72 87.45M35.07 74.28H43.37A7.42 7.42 0 0 0 43.37 80.95H35.07A11.7 11.7 0 0 0 35.07 74.28M50.07 83.12A5.5 5.5 0 1 1 55.57 77.62 5.51 5.51 0 0 1 50.09 83.12ZM56.8 81A7.42 7.42 0 0 0 56.8 74.33H65.1A11.7 11.7 0 0 0 65.1 81ZM76.46 87.5A9.84 9.84 0 1 1 86.3 77.66 9.85 9.85 0 0 1 76.45 87.45Z" fill="#000000" data-fill-palette-color="accent"></path><path d="M96.34 54.46V41A9 9 0 0 0 87.44 32L71.44 31.82A9 9 0 0 1 64.6 28.55C61.77 25.12 57.83 20.3 55.09 16.84A13 13 0 0 0 45.19 11.92L24.1 11.47A20 20 0 0 0 3.67 31.47V54.47A6.15 6.15 0 0 0 9.81 60.6H12.38A1 1 0 0 0 13.38 59.6 11.73 11.73 0 0 1 25.23 47.75 11.73 11.73 0 0 1 37.08 59.6 1 1 0 0 0 38.08 60.6H61.92A1 1 0 0 0 62.92 59.6 11.85 11.85 0 1 1 86.62 59.6 1 1 0 0 0 87.62 60.6H90.19A6.15 6.15 0 0 0 96.34 54.46M74.77 45.75A13.69 13.69 0 0 0 61 58.6H39A13.69 13.69 0 0 0 25.23 45.75 13.69 13.69 0 0 0 11.41 58.6H9.81A4.15 4.15 0 0 1 5.67 54.46V31.46A18 18 0 0 1 24.06 13.46L45.17 13.92A11 11 0 0 1 53.55 18.08C56.3 21.55 60.26 26.38 63.08 29.82A11 11 0 0 0 71.44 33.82L87.44 34A7 7 0 0 1 94.36 41V54.46A4.15 4.15 0 0 1 90.22 58.6H88.62A13.69 13.69 0 0 0 74.77 45.75" fill="#000000" data-fill-palette-color="accent"></path></svg></g><g transform="matrix(1,0,0,1,165.70259103352544,11.485800000000001)"><svg width="97.04999999999998" viewBox="4.2 -34.85 97.03999999999999 35.6" height="35.6" data-palette-color="#8dbdff"><path d="M18.25-12.1L27.25 0 19.5 0 10.55-12.6 10.55 0 4.2 0 4.2-34.85 13.9-34.85Q17.45-34.85 20.25-33.81 23.05-32.77 24.68-30.35 26.3-27.93 26.3-23.75L26.3-23.75Q26.3-21.48 25.54-19.06 24.78-16.65 23.01-14.75 21.25-12.85 18.25-12.1L18.25-12.1ZM10.55-29.85L10.55-15.75 13.2-15.75Q15.4-15.75 16.89-16.79 18.38-17.82 19.14-19.51 19.9-21.2 19.9-23.15L19.9-23.15Q19.9-26.53 18.35-28.19 16.8-29.85 13.05-29.85L13.05-29.85 10.55-29.85ZM42.65 0.65L42.65 0.65Q38.45 0.65 35.87-1.11 33.3-2.88 32.12-5.79 30.95-8.7 30.95-12.15L30.95-12.15Q30.95-15.78 32.28-18.81 33.62-21.85 36.21-23.68 38.8-25.5 42.55-25.5L42.55-25.5Q48.15-25.5 50.37-22.26 52.6-19.03 52.6-13.1L52.6-13.1Q52.6-12.58 52.57-11.78 52.55-10.98 52.5-10.4L52.5-10.4 37.5-10.4Q37.65-7.45 39.16-5.78 40.67-4.1 43.7-4.1L43.7-4.1Q45.25-4.1 47.02-4.79 48.8-5.48 49.65-6.45L49.65-6.45 51.65-1.7Q50.65-1.03 48.48-0.19 46.32 0.65 42.65 0.65ZM37.45-14.3L37.45-14.3 46.25-14.3Q46.25-16.93 45.78-18.31 45.32-19.7 44.52-20.23 43.72-20.75 42.7-20.75L42.7-20.75Q40.15-20.75 38.87-18.86 37.6-16.98 37.45-14.3ZM64.9 0L58.5 0 58.5-24.9 64.3-24.9 64.42-21.63Q65.4-23.13 67.15-24.31 68.9-25.5 71.75-25.5L71.75-25.5Q75.55-25.5 77.4-23.1 79.25-20.7 79.25-16.45L79.25-16.45 79.25 0 72.84 0 72.84-15.9Q72.84-17.98 71.97-19.26 71.09-20.55 69.3-20.55L69.3-20.55Q67.55-20.55 66.22-19.26 64.9-17.98 64.9-15.9L64.9-15.9 64.9 0ZM94.64 0.75L94.64 0.75Q90.42 0.75 88.93-1.45 87.44-3.65 87.44-8.1L87.44-8.1 87.44-19.65 84.19-19.65 84.19-24.9 87.69-24.9 88.04-30.15 93.49-32.5 93.49-24.9 99.64-24.9 99.64-19.65 93.49-19.65 93.49-8.25Q93.49-6.08 94.11-5.24 94.72-4.4 95.79-4.4L95.79-4.4Q96.89-4.4 98.12-4.98 99.34-5.55 100.04-6.15L100.04-6.15 101.24-1.1Q100.47-0.55 99.23-0.14 97.99 0.28 96.73 0.51 95.47 0.75 94.64 0.75Z" opacity="1" transform="matrix(1,0,0,1,0,0)" fill="#8dbdff" class="undefined-tk-1"></path></svg></g></svg></g></svg></g><g transform="matrix(1,0,0,1,50.18574488740336,66.9759056)"><svg viewBox="0 0 162.38110125871873 11.556525327198822" height="11.556525327198822" width="162.38110125871873"><g transform="matrix(1,0,0,1,0,0)"><svg width="162.38110125871873" viewBox="2.15 -35.8 646.97 46.05" height="11.556525327198822" data-palette-color="#4e81ca"><path d="M59.8-22.35L59.8-22.35Q59.8-19.8 57.25-16.75 54.7-13.7 49.53-11.8 44.35-9.9 39.48-9.9 34.6-9.9 31.75-11.15L31.75-11.15Q25.45-1.9 23.55 0L23.55 0Q18.15 5.4 10.65 5.4L10.65 5.4Q6.4 5.4 4.28 3.43 2.15 1.45 2.15-1.7L2.15-1.7Q2.15-6.05 5.65-9.9L5.65-9.9Q9.5-14.15 15.35-14.15L15.35-14.15Q17.75-14.15 19.4-13.05 21.05-11.95 21.05-9.7L21.05-9.7Q21.05-8.2 19.35-6.1 17.65-4 17.25-4L17.25-4Q17.15-4 17.15-4.2 17.15-4.4 17.3-4.6L17.3-4.6Q18.9-6.95 18.9-8.93 18.9-10.9 17.68-11.98 16.45-13.05 14.65-13.05L14.65-13.05Q10.45-13.05 7.23-9.22 4-5.4 4-1.5L4-1.5Q4 1 5.58 2.55 7.15 4.1 10.45 4.1L10.45 4.1Q16.6 4.1 21-0.05L21-0.05Q23.55-2.45 26.15-7.05L26.15-7.05 30.5-14.9Q33.7-20.05 37.95-30.2L37.95-30.2Q37.5-30.2 37.05-30.2L37.05-30.2Q30.3-30.2 23.5-28.73 16.7-27.25 13.2-24.5L13.2-24.5Q11.7-23.35 11.7-22.25 11.7-21.15 12.88-20.48 14.05-19.8 15.65-19.8 17.25-19.8 19.63-20.43 22-21.05 23.2-22.1L23.2-22.1Q23.7-22.5 23.9-22.5L23.9-22.5Q24.3-22.5 24.05-22.1L24.05-22.1Q22.25-20 18.6-18.95L18.6-18.95Q16.35-18.3 14.15-18.3 11.95-18.3 10.55-19.28 9.15-20.25 9.15-21.93 9.15-23.6 10.95-25.3L10.95-25.3Q14.35-28.6 23.1-30.2L23.1-30.2Q29.3-31.3 37.35-31.3L37.35-31.3Q38-31.3 38.7-31.3L38.7-31.3Q39.8-32.25 40.7-32.25 41.6-32.25 41.6-31.55L41.6-31.55Q41.6-31.4 41.55-31.2L41.55-31.2Q49.3-30.65 54.1-28.6L54.1-28.6Q59.8-26.2 59.8-22.35ZM57.45-22.85L57.45-22.85Q57.45-26 52.35-28L52.35-28Q47.9-29.75 41.2-30.1L41.2-30.1 39.6-25.1Q37.7-20.4 32.3-12L32.3-12Q32.8-11.75 34-11.45L34-11.45Q36-11.1 37.1-11.1L37.1-11.1Q40.9-11.1 45.85-12.68 50.8-14.25 54.13-17.28 57.45-20.3 57.45-22.85ZM63.05 0.25L63.05 0.25Q59.3 0.25 59.3-3.9L59.3-3.9Q59.3-6 60.4-8.5 61.5-11 62.8-12.7L62.8-12.7Q62.55-12.65 62.15-12.65L62.15-12.65Q60.95-12.65 60.15-14.35L60.15-14.35 56.45-9.55Q53.35-5.7 52.85-5.7L52.85-5.7Q52.6-5.7 52.6-5.9L52.6-5.9Q52.6-6.4 53.45-7.35L53.45-7.35Q57.8-12.4 59.6-15.9L59.6-15.9Q60.75-20.25 62.5-20.25L62.5-20.25Q63.65-20.25 63.65-19.25 63.65-18.25 62.4-16.7L62.4-16.7 61.2-15.1Q61.2-14.05 62.75-14.05L62.75-14.05Q63.65-14.05 64.75-14.7L64.75-14.7 66.05-15.5Q66.15-15.55 66.55-15.55 66.95-15.55 67.4-15.05 67.85-14.55 67.7-14.15L67.7-14.15 64.25-9.8Q61.05-5.7 61.05-3.33 61.05-0.95 63.25-0.95L63.25-0.95Q65.55-0.95 68.9-3.4L68.9-3.4Q70.9-4.85 72.55-6.65L72.55-6.65Q74.1-8.45 74.25-8.45L74.25-8.45Q74.6-8.45 74.6-8.08 74.6-7.7 74.15-7.2L74.15-7.2 72.55-5.4Q71.2-4 69.55-2.7L69.55-2.7Q65.6 0.25 63.05 0.25ZM75.1 0.65L75.1 0.65Q74.55 0.65 74.1 0.5L74.1 0.5Q70.9-0.4 70.9-3.1L70.9-3.1Q70.9-6.6 75.3-11.2 79.7-15.8 83.2-15.8L83.2-15.8Q84.35-15.8 85.07-15.18 85.8-14.55 85.8-13.65L85.8-13.65Q85.8-10.85 81.57-8.3 77.35-5.75 74.7-5.75L74.7-5.75Q74.3-5.75 74-5.85L74-5.85Q73.25-4.5 73.25-3L73.25-3Q73.25-0.4 75.72-0.4 78.2-0.4 82.15-3.75L82.15-3.75Q85.2-6.2 87.35-8.95L87.35-8.95Q87.8-9.55 88.12-9.55 88.45-9.55 88.45-9.25 88.45-8.95 88.05-8.4L88.05-8.4Q85.35-4.85 81.55-2.1 77.75 0.65 75.1 0.65ZM84.55-13.75L84.55-13.75Q84.55-14.35 83.27-14.35 82-14.35 79.65-12.4L79.65-12.4Q76.5-9.8 74.75-6.95L74.75-6.95Q75.05-6.85 75.4-6.85L75.4-6.85Q77.3-6.85 80.47-8.88 83.65-10.9 84.45-13.3L84.45-13.3Q84.55-13.55 84.55-13.75ZM105.79-24.45L105.79-24.45Q105.79-22.9 104.89-22.9L104.89-22.9Q104.64-22.9 104.39-23.3L104.39-23.3Q103.94-24.1 102.89-24.1L102.89-24.1Q100.59-24.1 98.59-20.8L98.59-20.8Q98.19-20.15 96.09-16.1L96.09-16.1 96.69-16.1Q102.14-16.1 103.94-16.25L103.94-16.25Q104.14-16.2 104.14-16.05L104.14-16.05Q104.14-15.65 100.59-14.95L100.59-14.95Q97.24-14.4 95.09-14L95.09-14Q93.54-10.8 91.34-6.4L91.34-6.4Q86.84 2 85.39 4.05L85.39 4.05Q81.04 10.25 76.89 10.25L76.89 10.25Q75.44 10.25 74.37 9.03 73.29 7.8 73.24 6.3L73.24 6.3Q73.39 5.7 73.69 5.7L73.69 5.7Q73.84 5.7 73.89 6.05L73.89 6.05Q74.19 7.35 74.89 8.05 75.59 8.75 76.34 8.75L76.34 8.75Q80.59 8.75 84.09 3.5L84.09 3.5Q86.09 0.5 89.54-7.3L89.54-7.3 92.24-13.8Q87.24-13.85 87.24-15L87.24-15Q87.24-15.5 87.72-15.85 88.19-16.2 88.54-16.2L88.54-16.2 93.24-16.1Q98.14-27 102.24-27L102.24-27Q103.79-27 105.39-25.5L105.39-25.5Q105.79-25.1 105.79-24.45ZM100.04 0.65L100.04 0.65Q99.49 0.65 99.04 0.5L99.04 0.5Q95.84-0.4 95.84-3.1L95.84-3.1Q95.84-6.6 100.24-11.2 104.64-15.8 108.14-15.8L108.14-15.8Q109.29-15.8 110.02-15.18 110.74-14.55 110.74-13.65L110.74-13.65Q110.74-10.85 106.52-8.3 102.29-5.75 99.64-5.75L99.64-5.75Q99.24-5.75 98.94-5.85L98.94-5.85Q98.19-4.5 98.19-3L98.19-3Q98.19-0.4 100.67-0.4 103.14-0.4 107.09-3.75L107.09-3.75Q110.14-6.2 112.29-8.95L112.29-8.95Q112.74-9.55 113.07-9.55 113.39-9.55 113.39-9.25 113.39-8.95 112.99-8.4L112.99-8.4Q110.29-4.85 106.49-2.1 102.69 0.65 100.04 0.65ZM109.49-13.75L109.49-13.75Q109.49-14.35 108.22-14.35 106.94-14.35 104.59-12.4L104.59-12.4Q101.44-9.8 99.69-6.95L99.69-6.95Q99.99-6.85 100.34-6.85L100.34-6.85Q102.24-6.85 105.42-8.88 108.59-10.9 109.39-13.3L109.39-13.3Q109.49-13.55 109.49-13.75ZM120.54 0.25L120.54 0.25Q116.79 0.25 116.79-3.9L116.79-3.9Q116.79-6 117.89-8.5 118.99-11 120.29-12.7L120.29-12.7Q120.04-12.65 119.64-12.65L119.64-12.65Q118.44-12.65 117.64-14.35L117.64-14.35 113.94-9.55Q110.84-5.7 110.34-5.7L110.34-5.7Q110.09-5.7 110.09-5.9L110.09-5.9Q110.09-6.4 110.94-7.35L110.94-7.35Q115.29-12.4 117.09-15.9L117.09-15.9Q118.24-20.25 119.99-20.25L119.99-20.25Q121.14-20.25 121.14-19.25 121.14-18.25 119.89-16.7L119.89-16.7 118.69-15.1Q118.69-14.05 120.24-14.05L120.24-14.05Q121.14-14.05 122.24-14.7L122.24-14.7 123.54-15.5Q123.64-15.55 124.04-15.55 124.44-15.55 124.89-15.05 125.34-14.55 125.19-14.15L125.19-14.15 121.74-9.8Q118.54-5.7 118.54-3.33 118.54-0.95 120.74-0.95L120.74-0.95Q123.04-0.95 126.39-3.4L126.39-3.4Q128.39-4.85 130.04-6.65L130.04-6.65Q131.59-8.45 131.74-8.45L131.74-8.45Q132.09-8.45 132.09-8.08 132.09-7.7 131.64-7.2L131.64-7.2 130.04-5.4Q128.69-4 127.04-2.7L127.04-2.7Q123.09 0.25 120.54 0.25ZM140.24 0.25L140.24 0.25Q136.49 0.25 136.49-3.9L136.49-3.9Q136.49-6 137.59-8.5 138.69-11 139.99-12.7L139.99-12.7Q139.74-12.65 139.34-12.65L139.34-12.65Q138.14-12.65 137.34-14.35L137.34-14.35 133.64-9.55Q130.54-5.7 130.04-5.7L130.04-5.7Q129.79-5.7 129.79-5.9L129.79-5.9Q129.79-6.4 130.64-7.35L130.64-7.35Q134.99-12.4 136.79-15.9L136.79-15.9Q137.94-20.25 139.69-20.25L139.69-20.25Q140.84-20.25 140.84-19.25 140.84-18.25 139.59-16.7L139.59-16.7 138.39-15.1Q138.39-14.05 139.94-14.05L139.94-14.05Q140.84-14.05 141.94-14.7L141.94-14.7 143.24-15.5Q143.34-15.55 143.74-15.55 144.14-15.55 144.59-15.05 145.04-14.55 144.89-14.15L144.89-14.15 141.44-9.8Q138.24-5.7 138.24-3.33 138.24-0.95 140.44-0.95L140.44-0.95Q142.74-0.95 146.09-3.4L146.09-3.4Q148.09-4.85 149.74-6.65L149.74-6.65Q151.29-8.45 151.44-8.45L151.44-8.45Q151.79-8.45 151.79-8.08 151.79-7.7 151.34-7.2L151.34-7.2 149.74-5.4Q148.39-4 146.74-2.7L146.74-2.7Q142.79 0.25 140.24 0.25ZM152.28 0.65L152.28 0.65Q151.73 0.65 151.28 0.5L151.28 0.5Q148.08-0.4 148.08-3.1L148.08-3.1Q148.08-6.6 152.48-11.2 156.88-15.8 160.38-15.8L160.38-15.8Q161.53-15.8 162.26-15.18 162.98-14.55 162.98-13.65L162.98-13.65Q162.98-10.85 158.76-8.3 154.53-5.75 151.88-5.75L151.88-5.75Q151.48-5.75 151.18-5.85L151.18-5.85Q150.43-4.5 150.43-3L150.43-3Q150.43-0.4 152.91-0.4 155.38-0.4 159.33-3.75L159.33-3.75Q162.38-6.2 164.53-8.95L164.53-8.95Q164.98-9.55 165.31-9.55 165.63-9.55 165.63-9.25 165.63-8.95 165.23-8.4L165.23-8.4Q162.53-4.85 158.73-2.1 154.93 0.65 152.28 0.65ZM161.73-13.75L161.73-13.75Q161.73-14.35 160.46-14.35 159.18-14.35 156.83-12.4L156.83-12.4Q153.68-9.8 151.93-6.95L151.93-6.95Q152.23-6.85 152.58-6.85L152.58-6.85Q154.48-6.85 157.66-8.88 160.83-10.9 161.63-13.3L161.63-13.3Q161.73-13.55 161.73-13.75ZM178.98-15.15L178.98-15.15Q184.58-24.25 186.78-24.25L186.78-24.25Q187.13-24.25 187.76-24.03 188.38-23.8 188.38-23.35L188.38-23.35Q188.38-23.1 188.13-22.7L188.13-22.7Q184.13-17.8 182.18-15.35L182.18-15.35Q176.28-7.9 175.68-4.65L175.68-4.65Q175.53-3.95 175.53-3.25L175.53-3.25Q175.53-1 177.38-1L177.38-1Q181.08-1 187.03-7.85L187.03-7.85Q187.53-8.35 187.88-8.43 188.23-8.5 188.23-8.25 188.23-8 187.93-7.65L187.93-7.65Q182.13-0.7 177.63 0.1L177.63 0.1Q177.38 0.15 176.93 0.15L176.93 0.15Q175.38 0.15 174.61-0.93 173.83-2 173.83-3.25L173.83-3.25Q173.83-4.65 174.38-6.35L174.38-6.35 170.33-2.3Q167.58 0.25 166.01 0.25 164.43 0.25 163.38-0.6L163.38-0.6Q162.13-1.55 162.13-3.25L162.13-3.25Q162.13-6.9 167.23-11.98 172.33-17.05 176.58-17.05L176.58-17.05Q177.98-17.05 178.53-16.3L178.53-16.3Q178.73-16.05 178.98-15.15ZM164.23-2.65L164.23-2.65Q164.23-0.85 165.48-0.85L165.48-0.85Q167.63-0.85 172.63-6.75L172.63-6.75Q173.53-7.8 178.63-14.6L178.63-14.6Q178.28-15.2 177.43-15.2L177.43-15.2Q174.33-15.2 169.28-10.48 164.23-5.75 164.23-2.65ZM222.88-13.9L222.88-13.9Q219.88-13.9 217.83-15.28 215.78-16.65 215.78-18.75L215.78-18.75Q215.78-21.4 219.23-24.05L219.23-24.05Q219.83-24.5 220.13-24.5 220.43-24.5 220.43-24.3L220.43-24.3Q220.43-23.8 219.63-23.5L219.63-23.5Q216.83-21.25 216.83-18.95L216.83-18.95Q216.83-17.3 218.33-16.18 219.83-15.05 222.08-15.05L222.08-15.05Q226.98-15.05 231.33-19.75L231.33-19.75Q233.58-22.2 233.58-25.4 233.58-28.6 231.18-30.15L231.18-30.15Q229.18-31.55 225.78-31.55L225.78-31.55Q220.88-31.55 215.93-29.1L215.93-29.1Q209.83-26.15 204.9-19.93 199.98-13.7 199.98-7.95L199.98-7.95Q199.98-3.4 203.08-0.93 206.18 1.55 210.78 1.55L210.78 1.55Q216.03 1.55 221.08-1L221.08-1Q224.93-3 227.73-6.1L227.73-6.1Q228.53-7 228.98-7L228.98-7Q229.28-7 229.28-6.48 229.28-5.95 228.73-5.4L228.73-5.4Q226.08-2.6 221.08 0L221.08 0Q214.93 3.25 208.7 3.25 202.48 3.25 199.43-0.85L199.43-0.85Q197.38-3.55 197.38-7.3L197.38-7.3Q197.38-8.95 197.78-10.85L197.78-10.85Q199.13-17.25 204.88-23.3L204.88-23.3Q209.03-27.65 214.73-30.08 220.43-32.5 225.53-32.5L225.53-32.5Q228.23-32.5 230.23-31.85L230.23-31.85Q235.68-30.15 235.68-25L235.68-25Q235.68-21.85 233.83-19.55L233.83-19.55Q229.23-13.9 222.88-13.9ZM248.72-14.95L248.72-14.95 249.42-15.1Q249.97-15.1 250.47-14.65 250.97-14.2 250.97-13.95 250.97-13.7 247.87-9.13 244.77-4.55 244.77-2.75L244.77-2.75Q244.77-2.6 244.82-2.45L244.82-2.45Q245.07-1.3 245.92-1.3L245.92-1.3Q248.52-1.3 255.42-9.9L255.42-9.9Q255.57-10.1 255.77-10.1 255.97-10.1 255.97-9.73 255.97-9.35 255.52-8.75L255.52-8.75Q249.12-0.2 245.77-0.2L245.77-0.2Q245.32-0.2 244.92-0.35L244.92-0.35Q242.72-1.2 242.72-3.65L242.72-3.65Q242.72-4.5 242.92-5.35L242.92-5.35 239.82-2.35Q236.87 0.25 235.55 0.25 234.22 0.25 233.02-0.6L233.02-0.6Q231.67-1.6 231.67-3.25L231.67-3.25Q231.67-6.9 236.77-11.98 241.87-17.05 246.12-17.05L246.12-17.05Q247.77-17.05 248.32-15.9L248.32-15.9Q248.47-15.5 248.57-15.23 248.67-14.95 248.72-14.95ZM233.77-2.65L233.77-2.65Q233.77-0.85 235.02-0.85L235.02-0.85Q237.92-0.85 242.92-7.2L242.92-7.2 248.22-14.5Q247.82-15.2 246.92-15.2L246.92-15.2Q243.87-15.2 238.82-10.48 233.77-5.75 233.77-2.65ZM262.92 0.25L262.92 0.25Q259.17 0.25 259.17-3.9L259.17-3.9Q259.17-6 260.27-8.5 261.37-11 262.67-12.7L262.67-12.7Q262.42-12.65 262.02-12.65L262.02-12.65Q260.82-12.65 260.02-14.35L260.02-14.35 256.32-9.55Q253.22-5.7 252.72-5.7L252.72-5.7Q252.47-5.7 252.47-5.9L252.47-5.9Q252.47-6.4 253.32-7.35L253.32-7.35Q257.67-12.4 259.47-15.9L259.47-15.9Q260.62-20.25 262.37-20.25L262.37-20.25Q263.52-20.25 263.52-19.25 263.52-18.25 262.27-16.7L262.27-16.7 261.07-15.1Q261.07-14.05 262.62-14.05L262.62-14.05Q263.52-14.05 264.62-14.7L264.62-14.7 265.92-15.5Q266.02-15.55 266.42-15.55 266.82-15.55 267.27-15.05 267.72-14.55 267.57-14.15L267.57-14.15 264.12-9.8Q260.92-5.7 260.92-3.33 260.92-0.95 263.12-0.95L263.12-0.95Q265.42-0.95 268.77-3.4L268.77-3.4Q270.77-4.85 272.42-6.65L272.42-6.65Q273.97-8.45 274.12-8.45L274.12-8.45Q274.47-8.45 274.47-8.08 274.47-7.7 274.02-7.2L274.02-7.2 272.42-5.4Q271.07-4 269.42-2.7L269.42-2.7Q265.47 0.25 262.92 0.25ZM283.22-1.8L281.62-0.75Q280.17 0.1 278.04 0.1 275.92 0.1 274.79-1.3 273.67-2.7 272.87-5.75L272.87-5.75Q271.97-4.85 271.62-4.85L271.62-4.85Q271.37-4.85 271.37-5.2 271.37-5.55 271.62-5.8L271.62-5.8Q273.27-7.85 277.22-11.7L277.22-11.7 283.52-17.6Q286.22-20.15 286.72-20.15L286.72-20.15Q288.32-20.15 288.32-18.95L288.32-18.95Q288.32-18.35 287.84-17.78 287.37-17.2 287.14-16.88 286.92-16.55 286.67-16.25L286.67-16.25Q285.77-14.7 284.84-9.85 283.92-5 283.42-3.1L283.42-3.1Q287.57-3.15 291.97-8.5L291.97-8.5Q292.47-9 292.72-9 292.97-9 292.97-8.68 292.97-8.35 292.52-7.8L292.52-7.8Q289.62-4.4 287.12-3.05L287.12-3.05Q285.62-2.3 283.22-1.8L283.22-1.8ZM274.87-6.3L274.87-6.3Q274.87-4.6 275.99-3.53 277.12-2.45 278.52-2.45 279.92-2.45 280.67-3L280.67-3Q281.67-3.55 282.64-7.6 283.62-11.65 283.82-14.75L283.82-14.75 284.02-16.45Q281.27-14.4 278.14-11.15 275.02-7.9 274.92-6.85L274.92-6.85Q274.87-6.55 274.87-6.3ZM298.76-1.45L298.76-1.45Q298.76 0.65 297.17 2.33 295.56 4 294.99 4 294.42 4 294.42 3.9 294.42 3.8 295.49 2.58 296.56 1.35 296.56 0.6 296.56-0.15 295.89-0.75 295.22-1.35 295.22-1.65L295.22-1.65Q295.22-3.15 296.67-3.15L296.67-3.15Q297.42-3.15 298.09-2.65 298.76-2.15 298.76-1.45ZM335.16-20.35L335.16-20.35Q340.06-20.35 340.06-18.5L340.06-18.5Q340.06-18.1 339.76-17.6L339.76-17.6Q338.56-15.75 335.41-15.75L335.41-15.75Q333.36-15.75 331.21-16.48 329.06-17.2 327.96-18L327.96-18Q323.31-16.65 319.69-13.85 316.06-11.05 314.26-7.5L314.26-7.5Q313.31-5.6 313.31-3.8L313.31-3.8Q313.31-1 315.63 0.75 317.96 2.5 322.46 2.5L322.46 2.5Q323.71 2.5 325.06 2.35L325.06 2.35Q333.01 1.5 337.71-2.75L337.71-2.75Q341.66-6.25 341.66-10.1L341.66-10.1Q341.66-13.15 338.71-13.15L338.71-13.15Q335.16-13.15 330.56-9.35L330.56-9.35Q329.41-8.4 328.61-6.95 327.81-5.5 327.81-4.1 327.81-2.7 329.21-2.35L329.21-2.35Q329.71-2.15 329.71-1.85L329.71-1.85Q329.71-1.35 328.71-1.45L328.71-1.45Q326.31-1.5 326.31-4.6 326.31-7.7 329.46-10.4L329.46-10.4Q333.76-14.1 338.56-14.1L338.56-14.1Q342.16-14.1 343.11-11.85L343.11-11.85Q343.51-10.8 343.51-9.75L343.51-9.75Q343.51-5.1 338.36-1L338.36-1Q332.21 4 322.76 4L322.76 4Q316.91 4 313.51 1.83 310.11-0.35 310.11-3.85L310.11-3.85Q310.11-5.9 311.41-7.95L311.41-7.95Q316.01-15.25 327.11-18.8L327.11-18.8Q325.46-20.7 325.46-22.85 325.46-25 326.51-26.45L326.51-26.45Q328.56-29.25 332.66-31.05L332.66-31.05Q337.56-33.2 342.46-33.2L342.46-33.2Q345.31-33.2 347.03-32.27 348.76-31.35 348.76-29.43 348.76-27.5 347.33-26.18 345.91-24.85 344.36-24.85 342.81-24.85 342.81-25.6L342.81-25.6Q342.81-26.05 343.46-26.05L343.46-26.05 344.46-25.9Q345.46-25.9 346.28-26.98 347.11-28.05 347.11-29.2L347.11-29.2Q347.11-30.9 345.16-31.7L345.16-31.7Q343.91-32.2 342.81-32.2 341.71-32.2 341.26-32.15L341.26-32.15Q336.96-31.9 332.86-29.15L332.86-29.15Q328.06-26 328.06-22.05L328.06-22.05Q328.06-20.6 329.06-19.35L329.06-19.35Q332.26-20.35 335.16-20.35ZM329.91-18.55L329.91-18.55Q332.06-16.85 334.86-16.85 337.66-16.85 337.66-18.4L337.66-18.4Q337.66-19.1 335.16-19.1 332.66-19.1 329.91-18.55ZM352.56-15.8L352.56-15.8Q353.91-15.8 353.91-14.75L353.91-14.75Q353.91-14.45 353.76-14.15L353.76-14.15Q349.26-7.9 348.36-4.7L348.36-4.7Q360.01-16.35 362.51-16.35L362.51-16.35Q362.76-16.4 362.96-16.4L362.96-16.4Q364.36-16.4 364.36-15.15L364.36-15.15Q364.36-14.9 364.26-14.65 364.16-14.4 362.26-11.95L362.26-11.95Q360.06-9.35 358.53-6.95 357.01-4.55 357.01-2.95 357.01-1.35 357.71-1.35L357.71-1.35Q359.91-1.35 365.36-7.4L365.36-7.4Q365.46-7.5 365.71-7.85L365.71-7.85Q366.46-8.75 366.61-8.75 366.76-8.75 366.76-8.25 366.76-7.75 366.06-6.95L366.06-6.95Q359.86 0.1 357.26 0.1L357.26 0.1Q354.81 0.1 354.81-2.6 354.81-5.3 356.81-8.8L356.81-8.8 360.01-14Q356.61-11.5 353.96-8.53 351.31-5.55 349.13-2.75 346.96 0.05 346.61 0.05L346.61 0.05Q345.86 0.05 345.43-0.58 345.01-1.2 345.01-2.13 345.01-3.05 345.66-4.6 346.31-6.15 347.31-8.35L347.31-8.35 344.31-5.2Q343.21-4.1 342.93-4.1 342.66-4.1 342.66-4.42 342.66-4.75 343.06-5.15L343.06-5.15Q344.91-7 346.26-8.7L346.26-8.7Q347.56-10.4 351.61-15.2L351.61-15.2Q352.06-15.8 352.56-15.8ZM374.85-20.5Q375.6-20.5 376.28-20 376.95-19.5 376.95-18.88 376.95-18.25 376.33-17.78 375.7-17.3 374.95-17.3 374.2-17.3 373.58-17.82 372.95-18.35 372.95-19.05L372.95-19.05Q372.95-20.5 374.85-20.5L374.85-20.5ZM373.9-13.6L373.9-13.6Q373.9-13.3 369.95-6.5L369.95-6.5Q366.1 0.85 364 3.75L364 3.75Q359.45 10.25 355.45 10.25L355.45 10.25Q353.95 10.25 352.68 9.28 351.4 8.3 351.4 7.33 351.4 6.35 351.85 6.35L351.85 6.35Q351.9 6.35 352.88 7.63 353.85 8.9 355.15 8.9L355.15 8.9Q359.15 8.9 364.25-0.15L364.25-0.15Q367.4-5.8 368.55-9.3L368.55-9.3Q367.95-8.6 366.48-7.25 365-5.9 364.68-5.9 364.35-5.9 364.35-6.05L364.35-6.05Q364.35-6.5 365.15-7.2 365.95-7.9 367.3-9.85 368.65-11.8 368.9-12L368.9-12 370.55-13.75Q371.55-14.7 372.73-14.7 373.9-14.7 373.9-13.6ZM387.75-10.6L387.75-10.6Q387.75-8.85 384.4-4.75L384.4-4.75Q380.45 0.1 377.65 0.1L377.65 0.1 376.85 0.1Q375.55 0.1 374.8-1.25L374.8-1.25Q374.2-2.2 374.2-3.35L374.2-3.35Q374.2-6.35 378.58-11.78 382.95-17.2 385.65-17.2L385.65-17.2Q388.2-17.2 388.2-14.5L388.2-14.5Q388.2-13.8 387.95-12.7L387.95-12.7Q388-12.55 388.9-12.55 389.8-12.55 391.65-13.5L391.65-13.5Q391.6-12.65 387.7-11.05L387.7-11.05Q387.75-10.85 387.75-10.6ZM384.5-13.2L384.5-13.2Q382.8-13.2 379.68-9.2 376.55-5.2 376.55-3.3 376.55-1.4 377.75-1.4L377.75-1.4Q379.9-1.4 383.2-5.3 386.5-9.2 386.5-10.9L386.5-10.9Q385.7-11.35 384.5-13.2ZM385.95 5.8L385.95 5.8Q388.35 8.8 390.1 8.8L390.1 8.8Q392.95 8.8 396.25 4.25L396.25 4.25Q398.65 0.9 400.95-4.2L400.95-4.2 402.85-8.8 395.5-3.05Q392.1-0.4 390.05-0.4L390.05-0.4Q388.95-0.4 388.3-1.15 387.65-1.9 387.65-2.85L387.65-2.85Q387.65-5 391.35-9.93 395.05-14.85 396.75-14.85 398.45-14.85 398.45-13.7L398.45-13.7Q398.45-13.25 394.02-8.53 389.6-3.8 389.6-2.15L389.6-2.15Q389.6-1.5 390.45-1.5L390.45-1.5Q392.05-1.5 396.88-5.25 401.7-9 404.15-11.45L404.15-11.45Q404.7-12.1 405.7-13.4L405.7-13.4Q406.65-14.5 407.8-14.5 408.95-14.5 408.95-13.4L408.95-13.4Q408.95-13.2 406.7-9.85 404.45-6.5 404.35-6.3L404.35-6.3Q402.8-3.3 399.6 2.45L399.6 2.45Q394.75 10.25 389.9 10.25L389.9 10.25Q388.3 10.25 387.1 8.88 385.9 7.5 385.95 5.8ZM423.85-14.95L423.85-14.95 424.55-15.1Q425.1-15.1 425.6-14.65 426.1-14.2 426.1-13.95 426.1-13.7 423-9.13 419.9-4.55 419.9-2.75L419.9-2.75Q419.9-2.6 419.95-2.45L419.95-2.45Q420.2-1.3 421.05-1.3L421.05-1.3Q423.65-1.3 430.55-9.9L430.55-9.9Q430.7-10.1 430.9-10.1 431.1-10.1 431.1-9.73 431.1-9.35 430.65-8.75L430.65-8.75Q424.25-0.2 420.9-0.2L420.9-0.2Q420.45-0.2 420.05-0.35L420.05-0.35Q417.85-1.2 417.85-3.65L417.85-3.65Q417.85-4.5 418.05-5.35L418.05-5.35 414.95-2.35Q412 0.25 410.67 0.25 409.35 0.25 408.15-0.6L408.15-0.6Q406.8-1.6 406.8-3.25L406.8-3.25Q406.8-6.9 411.9-11.98 417-17.05 421.25-17.05L421.25-17.05Q422.9-17.05 423.45-15.9L423.45-15.9Q423.6-15.5 423.7-15.23 423.8-14.95 423.85-14.95ZM408.9-2.65L408.9-2.65Q408.9-0.85 410.15-0.85L410.15-0.85Q413.05-0.85 418.05-7.2L418.05-7.2 423.35-14.5Q422.95-15.2 422.05-15.2L422.05-15.2Q419-15.2 413.95-10.48 408.9-5.75 408.9-2.65ZM439.25-12.45L439.25-12.45Q439.25-15.85 441.35-15.85L441.35-15.85Q441.55-15.85 441.8-15.8L441.8-15.8Q442.65-15.65 442.65-14.5 442.65-13.35 442.25-11.6L442.25-11.6Q441.85-10.3 441.7-9.65L441.7-9.65Q441.85-8.8 442.52-7.48 443.2-6.15 444.37-6.15 445.55-6.15 447-7.75L447-7.75Q447.3-8.1 447.57-8.1 447.85-8.1 447.87-7.78 447.9-7.45 447.5-6.9L447.5-6.9Q445.95-5.05 444.25-5.05L444.25-5.05Q441.8-5.05 440.3-8.65L440.3-8.65Q438.75-5.1 435.9-2.53 433.05 0.05 430.25 0.05L430.25 0.05Q427.6 0.05 427.6-3.95L427.6-3.95Q427.6-7.1 433.47-15.55 439.35-24 442.45-24L442.45-24Q443.1-24 443.62-23.6 444.15-23.2 444.15-22.65L444.15-22.65Q444.15-22.7 443.42-21.9 442.7-21.1 439.47-17.6 436.25-14.1 433.15-9.9 430.05-5.7 430.05-3.4L430.05-3.4Q430.05-2.8 430.37-2.1 430.7-1.4 431.45-1.4L431.45-1.4Q433.65-1.4 436.6-4.8L436.6-4.8Q439.05-7.8 439.6-9.85L439.6-9.85Q439.25-10.9 439.25-12.45ZM448.04-2.5Q448.04-1 449.69-1 451.34-1 453.94-2.75 456.54-4.5 458.99-7.5L458.99-7.5Q459.59-8.3 459.94-8.3 460.29-8.3 460.29-8L460.29-8Q460.29-7.7 458.24-5.4L458.24-5.4Q453.24 0.1 449.89 0.1L449.89 0.1Q448.24 0.1 447.09-0.68 445.94-1.45 445.94-3.08 445.94-4.7 446.79-6.85L446.79-6.85Q448.24-10.25 451.44-15.4L451.44-15.4Q457.29-24.9 459.74-24.9L459.74-24.9Q460.24-24.9 460.77-24.53 461.29-24.15 461.34-23.7L461.34-23.7Q460.19-22.15 456.92-17.75 453.64-13.35 452.39-11.43 451.14-9.5 450.52-8.55 449.89-7.6 449.59-7.08 449.29-6.55 448.89-5.7L448.89-5.7Q448.04-4 448.04-2.5ZM460.79 0.65L460.79 0.65Q460.24 0.65 459.79 0.5L459.79 0.5Q456.59-0.4 456.59-3.1L456.59-3.1Q456.59-6.6 460.99-11.2 465.39-15.8 468.89-15.8L468.89-15.8Q470.04-15.8 470.76-15.18 471.49-14.55 471.49-13.65L471.49-13.65Q471.49-10.85 467.26-8.3 463.04-5.75 460.39-5.75L460.39-5.75Q459.99-5.75 459.69-5.85L459.69-5.85Q458.94-4.5 458.94-3L458.94-3Q458.94-0.4 461.42-0.4 463.89-0.4 467.84-3.75L467.84-3.75Q470.89-6.2 473.04-8.95L473.04-8.95Q473.49-9.55 473.81-9.55 474.14-9.55 474.14-9.25 474.14-8.95 473.74-8.4L473.74-8.4Q471.04-4.85 467.24-2.1 463.44 0.65 460.79 0.65ZM470.24-13.75L470.24-13.75Q470.24-14.35 468.97-14.35 467.69-14.35 465.34-12.4L465.34-12.4Q462.19-9.8 460.44-6.95L460.44-6.95Q460.74-6.85 461.09-6.85L461.09-6.85Q462.99-6.85 466.17-8.88 469.34-10.9 470.14-13.3L470.14-13.3Q470.24-13.55 470.24-13.75ZM515.19-23.85L515.19-23.85Q515.19-23.45 514.16-23.45 513.13-23.45 512.11-24.48 511.09-25.5 511.09-26.98 511.09-28.45 511.99-29.65L511.99-29.65Q513.88-32.25 518.34-33.35L518.34-33.35Q521.53-34.15 524.74-34.15L524.74-34.15 525.13-34.15Q525.59-34.15 527.59-34L527.59-34Q527.49-34.65 528.11-35.23 528.74-35.8 529.53-35.8L529.53-35.8Q531.03-35.8 530.99-33.65L530.99-33.65Q536.38-32.7 536.69-30.75L536.69-30.75Q536.74-30.3 536.74-30L536.74-30Q536.74-29 536.16-29 535.59-29 535.78-30.2L535.78-30.2Q534.53-32.05 530.84-32.8L530.84-32.8Q529.94-28.75 521.44-15.2L521.44-15.2Q515.78-6.3 508.29-0.3L508.29-0.3Q499.69 6.5 492.09 6.5L492.09 6.5Q487.44 6.5 485.19 4.15 482.94 1.8 482.94-1.07 482.94-3.95 484.04-6L484.04-6Q486.69-11.1 491.69-13.95L491.69-13.95Q495.38-16.1 498.54-16.1L498.54-16.1Q501.94-16.1 503.86-14.45 505.79-12.8 505.79-10.3L505.79-10.3Q505.79-7.6 503.79-5.4L503.79-5.4Q502.54-4 501.79-4L501.79-4Q501.59-4 501.59-4.17 501.59-4.35 501.74-4.65L501.74-4.65Q503.54-7.3 503.54-9.58 503.54-11.85 502.29-13.3L502.29-13.3Q500.84-14.85 498.36-14.85 495.88-14.85 492.84-12.85L492.84-12.85Q489.09-10.4 486.69-5.5L486.69-5.5Q485.44-3.05 485.44-0.43 485.44 2.2 487.38 3.83 489.34 5.45 492.63 5.45L492.63 5.45Q505.34 5.45 519.19-16.85L519.19-16.85Q527.49-30.15 527.69-33.15L527.69-33.15Q524.69-33.3 524.53-33.3L524.53-33.3Q522.19-33.3 518.51-32 514.84-30.7 513.74-28.8L513.74-28.8Q513.28-28.05 513.28-27.15 513.28-26.25 514.24-25.15 515.19-24.05 515.19-23.85ZM535.13-10.6L535.13-10.6Q535.13-8.85 531.78-4.75L531.78-4.75Q527.83 0.1 525.03 0.1L525.03 0.1 524.23 0.1Q522.93 0.1 522.18-1.25L522.18-1.25Q521.58-2.2 521.58-3.35L521.58-3.35Q521.58-6.35 525.96-11.78 530.33-17.2 533.03-17.2L533.03-17.2Q535.58-17.2 535.58-14.5L535.58-14.5Q535.58-13.8 535.33-12.7L535.33-12.7Q535.38-12.55 536.28-12.55 537.18-12.55 539.03-13.5L539.03-13.5Q538.98-12.65 535.08-11.05L535.08-11.05Q535.13-10.85 535.13-10.6ZM531.88-13.2L531.88-13.2Q530.18-13.2 527.06-9.2 523.93-5.2 523.93-3.3 523.93-1.4 525.13-1.4L525.13-1.4Q527.28-1.4 530.58-5.3 533.88-9.2 533.88-10.9L533.88-10.9Q533.08-11.35 531.88-13.2ZM550.13 0.3L550.13 0.3Q549.88 0.35 549.05 0.35 548.23 0.35 547.4-0.3 546.58-0.95 546.58-1.98 546.58-3 546.95-4.25 547.33-5.5 547.48-6.15L547.48-6.15Q541.73 0.55 538.48 0.55L538.48 0.55Q536.43 0.55 536.23-2L536.23-2Q536.23-2.2 536.23-2.35L536.23-2.35Q536.23-4.5 538.83-8.15L538.83-8.15Q537.38-6.85 535.88-5.15L535.88-5.15Q535.68-4.95 535.38-4.95L535.38-4.95Q535.18-4.95 535.18-5.2 535.18-5.45 535.63-6.05L535.63-6.05 542.53-14.15Q543.83-15.65 545.18-15.65 546.53-15.65 546.53-14.75L546.53-14.75Q546.53-14.4 546.23-14.1L546.23-14.1Q544.23-12.25 541.2-7.95 538.18-3.65 538.18-1.6L538.18-1.6Q538.18-0.7 538.78-0.7L538.78-0.7Q540.88-0.7 544.88-4.85L544.88-4.85Q546.28-6.25 550.08-11.03 553.88-15.8 555.08-15.8L555.08-15.8Q556.88-15.8 556.88-14.4L556.88-14.4Q556.88-13.9 554.78-11.5L554.78-11.5Q551.93-8.05 550.43-5.88 548.93-3.7 548.93-2.35 548.93-1 549.68-1L549.68-1Q550.03-1 550.48-1.2L550.48-1.2Q553.93-2.7 558.73-8.2L558.73-8.2Q559.03-8.55 559.33-8.55 559.63-8.55 559.63-8.22 559.63-7.9 559.28-7.5L559.28-7.5Q557.13-5 554.23-2.48 551.33 0.05 550.13 0.3ZM567.58 0.25L567.58 0.25Q563.83 0.25 563.83-3.9L563.83-3.9Q563.83-6 564.93-8.5 566.03-11 567.33-12.7L567.33-12.7Q567.08-12.65 566.68-12.65L566.68-12.65Q565.48-12.65 564.68-14.35L564.68-14.35 560.98-9.55Q557.88-5.7 557.38-5.7L557.38-5.7Q557.13-5.7 557.13-5.9L557.13-5.9Q557.13-6.4 557.98-7.35L557.98-7.35Q562.33-12.4 564.13-15.9L564.13-15.9Q565.28-20.25 567.03-20.25L567.03-20.25Q568.18-20.25 568.18-19.25 568.18-18.25 566.93-16.7L566.93-16.7 565.73-15.1Q565.73-14.05 567.28-14.05L567.28-14.05Q568.18-14.05 569.28-14.7L569.28-14.7 570.58-15.5Q570.68-15.55 571.08-15.55 571.48-15.55 571.93-15.05 572.38-14.55 572.23-14.15L572.23-14.15 568.78-9.8Q565.58-5.7 565.58-3.33 565.58-0.95 567.78-0.95L567.78-0.95Q570.08-0.95 573.43-3.4L573.43-3.4Q575.43-4.85 577.08-6.65L577.08-6.65Q578.63-8.45 578.78-8.45L578.78-8.45Q579.13-8.45 579.13-8.08 579.13-7.7 578.68-7.2L578.68-7.2 577.08-5.4Q575.73-4 574.08-2.7L574.08-2.7Q570.13 0.25 567.58 0.25ZM585.12-15.8L585.12-15.8Q586.47-15.8 586.47-14.75L586.47-14.75Q586.47-14.45 586.32-14.15L586.32-14.15Q581.82-7.9 580.92-4.7L580.92-4.7Q592.57-16.35 595.07-16.35L595.07-16.35Q595.32-16.4 595.52-16.4L595.52-16.4Q596.92-16.4 596.92-15.15L596.92-15.15Q596.92-14.9 596.82-14.65 596.72-14.4 594.82-11.95L594.82-11.95Q592.62-9.35 591.1-6.95 589.57-4.55 589.57-2.95 589.57-1.35 590.27-1.35L590.27-1.35Q592.47-1.35 597.92-7.4L597.92-7.4Q598.02-7.5 598.27-7.85L598.27-7.85Q599.02-8.75 599.17-8.75 599.32-8.75 599.32-8.25 599.32-7.75 598.62-6.95L598.62-6.95Q592.42 0.1 589.82 0.1L589.82 0.1Q587.37 0.1 587.37-2.6 587.37-5.3 589.37-8.8L589.37-8.8 592.57-14Q589.17-11.5 586.52-8.53 583.87-5.55 581.7-2.75 579.52 0.05 579.17 0.05L579.17 0.05Q578.42 0.05 578-0.58 577.57-1.2 577.57-2.13 577.57-3.05 578.22-4.6 578.87-6.15 579.87-8.35L579.87-8.35 576.87-5.2Q575.77-4.1 575.5-4.1 575.22-4.1 575.22-4.42 575.22-4.75 575.62-5.15L575.62-5.15Q577.47-7 578.82-8.7L578.82-8.7Q580.12-10.4 584.17-15.2L584.17-15.2Q584.62-15.8 585.12-15.8ZM599.77 0.65L599.77 0.65Q599.22 0.65 598.77 0.5L598.77 0.5Q595.57-0.4 595.57-3.1L595.57-3.1Q595.57-6.6 599.97-11.2 604.37-15.8 607.87-15.8L607.87-15.8Q609.02-15.8 609.75-15.18 610.47-14.55 610.47-13.65L610.47-13.65Q610.47-10.85 606.25-8.3 602.02-5.75 599.37-5.75L599.37-5.75Q598.97-5.75 598.67-5.85L598.67-5.85Q597.92-4.5 597.92-3L597.92-3Q597.92-0.4 600.4-0.4 602.87-0.4 606.82-3.75L606.82-3.75Q609.87-6.2 612.02-8.95L612.02-8.95Q612.47-9.55 612.8-9.55 613.12-9.55 613.12-9.25 613.12-8.95 612.72-8.4L612.72-8.4Q610.02-4.85 606.22-2.1 602.42 0.65 599.77 0.65ZM609.22-13.75L609.22-13.75Q609.22-14.35 607.95-14.35 606.67-14.35 604.32-12.4L604.32-12.4Q601.17-9.8 599.42-6.95L599.42-6.95Q599.72-6.85 600.07-6.85L600.07-6.85Q601.97-6.85 605.15-8.88 608.32-10.9 609.12-13.3L609.12-13.3Q609.22-13.55 609.22-13.75ZM607.27 5.8L607.27 5.8Q609.67 8.8 611.42 8.8L611.42 8.8Q614.27 8.8 617.57 4.25L617.57 4.25Q619.97 0.9 622.27-4.2L622.27-4.2 624.17-8.8 616.82-3.05Q613.42-0.4 611.37-0.4L611.37-0.4Q610.27-0.4 609.62-1.15 608.97-1.9 608.97-2.85L608.97-2.85Q608.97-5 612.67-9.93 616.37-14.85 618.07-14.85 619.77-14.85 619.77-13.7L619.77-13.7Q619.77-13.25 615.34-8.53 610.92-3.8 610.92-2.15L610.92-2.15Q610.92-1.5 611.77-1.5L611.77-1.5Q613.37-1.5 618.19-5.25 623.02-9 625.47-11.45L625.47-11.45Q626.02-12.1 627.02-13.4L627.02-13.4Q627.97-14.5 629.12-14.5 630.27-14.5 630.27-13.4L630.27-13.4Q630.27-13.2 628.02-9.85 625.77-6.5 625.67-6.3L625.67-6.3Q624.12-3.3 620.92 2.45L620.92 2.45Q616.07 10.25 611.22 10.25L611.22 10.25Q609.62 10.25 608.42 8.88 607.22 7.5 607.27 5.8ZM639.37-1.8L637.77-0.75Q636.32 0.1 634.19 0.1 632.07 0.1 630.94-1.3 629.82-2.7 629.02-5.75L629.02-5.75Q628.12-4.85 627.77-4.85L627.77-4.85Q627.52-4.85 627.52-5.2 627.52-5.55 627.77-5.8L627.77-5.8Q629.42-7.85 633.37-11.7L633.37-11.7 639.67-17.6Q642.37-20.15 642.87-20.15L642.87-20.15Q644.47-20.15 644.47-18.95L644.47-18.95Q644.47-18.35 643.99-17.78 643.52-17.2 643.29-16.88 643.07-16.55 642.82-16.25L642.82-16.25Q641.92-14.7 640.99-9.85 640.07-5 639.57-3.1L639.57-3.1Q643.72-3.15 648.12-8.5L648.12-8.5Q648.62-9 648.87-9 649.12-9 649.12-8.68 649.12-8.35 648.67-7.8L648.67-7.8Q645.77-4.4 643.27-3.05L643.27-3.05Q641.77-2.3 639.37-1.8L639.37-1.8ZM631.02-6.3L631.02-6.3Q631.02-4.6 632.14-3.53 633.27-2.45 634.67-2.45 636.07-2.45 636.82-3L636.82-3Q637.82-3.55 638.79-7.6 639.77-11.65 639.97-14.75L639.97-14.75 640.17-16.45Q637.42-14.4 634.29-11.15 631.17-7.9 631.07-6.85L631.07-6.85Q631.02-6.55 631.02-6.3Z" opacity="1" transform="matrix(1,0,0,1,0,0)" fill="#000000" class="slogan-text-1" data-fill-palette-color="secondary" id="text-1"></path></svg></g></svg></g></svg></g></svg></g></svg></g><defs></defs></svg><rect width="262.75259103352545" height="78.53243092719882" fill="none" stroke="none" visibility="hidden"></rect></g></svg></g></svg>